<svg width="30" height="30" viewBox="0 0 30 30" fill="none" xmlns="http://www.w3.org/2000/svg">
<g opacity="0.4">
<path d="M25.8962 24.3363V5.65706C26.7558 5.65706 27.4528 4.95999 27.4528 4.10046C27.4528 3.24092 26.7558 2.54385 25.8962 2.54385H4.10378C3.24425 2.54385 2.54718 3.24092 2.54718 4.10046C2.54718 4.95999 3.24425 5.65706 4.10378 5.65706V24.3363C3.24425 24.3363 2.54718 25.0334 2.54718 25.8929C2.54718 26.7524 3.24425 27.4495 4.10378 27.4495H12.6651V22.7797H17.3349V27.4495H25.8962C26.7558 27.4495 27.4528 26.7524 27.4528 25.8929C27.4528 25.0319 26.7572 24.3363 25.8962 24.3363ZM13.4434 7.83631C13.4434 7.5262 13.7535 7.2161 14.0636 7.2161H15.9364C16.2453 7.21415 16.5566 7.52499 16.5566 7.83631V9.7091C16.5566 10.0192 16.2465 10.3293 15.9364 10.3293H14.0636C13.7547 10.3269 13.4434 10.0156 13.4434 9.7091V7.83631ZM13.4434 12.5061C13.4434 12.196 13.7535 11.8859 14.0636 11.8859H15.9364C16.2453 11.8835 16.5566 12.1948 16.5566 12.5061V14.3789C16.5566 14.689 16.2465 14.9991 15.9364 14.9991H14.0636C13.7547 14.9967 13.4434 14.6854 13.4434 14.3789V12.5061ZM7.21699 7.83631C7.21699 7.5262 7.5271 7.2161 7.8372 7.2161H9.70999C10.0189 7.21464 10.3302 7.52499 10.3302 7.83631V9.7091C10.3302 10.0192 10.0201 10.3293 9.70999 10.3293H7.8372C7.52831 10.3269 7.21699 10.0156 7.21699 9.7091V7.83631ZM9.71242 14.9967H7.83963C7.52831 14.9967 7.21699 14.6854 7.21699 14.3789V12.5061C7.21699 12.196 7.5271 11.8859 7.8372 11.8859H9.70999C10.0189 11.8835 10.3302 12.1948 10.3302 12.5061V14.3789C10.3302 14.6854 10.0189 14.9967 9.71242 14.9967ZM10.3302 21.2231C10.3302 18.645 12.4219 16.5533 15 16.5533C17.5781 16.5533 19.6698 18.645 19.6698 21.2231H10.3302ZM22.783 14.3789C22.783 14.689 22.4729 14.9991 22.1628 14.9991H20.29C19.9811 14.9967 19.6698 14.6854 19.6698 14.3789V12.5061C19.6698 12.196 19.9799 11.8859 20.29 11.8859H22.1628C22.4717 11.8835 22.783 12.1948 22.783 12.5061V14.3789ZM22.783 9.7091C22.783 10.0192 22.4729 10.3293 22.1628 10.3293H20.29C19.9811 10.3269 19.6698 10.0156 19.6698 9.7091V7.83631C19.6698 7.5262 19.9799 7.2161 20.29 7.2161H22.1628C22.4717 7.21464 22.783 7.52499 22.783 7.83631V9.7091Z" fill="black"/>
</g>
</svg>
