<svg width="18" height="18" viewBox="0 0 18 18" fill="none" xmlns="http://www.w3.org/2000/svg">
<g clip-path="url(#clip0_130_78)">
<path d="M1.53028 5.75936C1.52965 5.65012 1.55059 5.54184 1.59189 5.44072C1.63319 5.33959 1.69406 5.24761 1.77098 5.17006C1.84814 5.09226 1.93994 5.03052 2.04108 4.98838C2.14222 4.94624 2.25071 4.92455 2.36028 4.92455C2.46985 4.92455 2.57834 4.94624 2.67948 4.98838C2.78062 5.03052 2.87242 5.09226 2.94958 5.17006L9.00027 11.2291L15.051 5.17006C15.2073 5.01377 15.4192 4.92596 15.6403 4.92596C15.7497 4.92596 15.8581 4.94752 15.9592 4.9894C16.0603 5.03128 16.1522 5.09267 16.2296 5.17006C16.307 5.24745 16.3683 5.33932 16.4102 5.44043C16.4521 5.54154 16.4737 5.64991 16.4737 5.75936C16.4737 5.98039 16.3859 6.19236 16.2296 6.34866L9.58957 12.9887C9.51241 13.0664 9.42062 13.1282 9.31947 13.1703C9.21833 13.2125 9.10984 13.2342 9.00027 13.2342C8.8907 13.2342 8.78222 13.2125 8.68108 13.1703C8.57993 13.1282 8.48813 13.0664 8.41098 12.9887L1.77098 6.34866C1.69406 6.2711 1.63319 6.17912 1.59189 6.078C1.55059 5.97687 1.52965 5.86859 1.53028 5.75936Z" fill="black"/>
</g>
<defs>
<clipPath id="clip0_130_78">
<rect width="18" height="18" fill="white" transform="matrix(0 1 -1 0 18 0)"/>
</clipPath>
</defs>
</svg>
