<svg width="30" height="30" viewBox="0 0 30 30" fill="none" xmlns="http://www.w3.org/2000/svg">
<path d="M23.7125 15.5779C22.0384 15.0315 20.321 14.6279 18.5788 14.3714L13.2825 4.95962C12.8511 4.37339 12.3 3.8856 11.6656 3.52862C11.0313 3.17163 10.3284 2.95361 9.60336 2.88902L8.94453 2.82913C8.79977 2.81867 8.65473 2.84522 8.52305 2.90626C8.39138 2.96731 8.27739 3.06084 8.19183 3.17807C8.10626 3.2953 8.05191 3.43237 8.03391 3.57639C8.01591 3.72041 8.03483 3.86664 8.08891 4.00133L11.5114 13.1821C10.0226 12.9169 8.77341 12.6773 7.67821 12.5661L6.64291 10.2816C6.45385 9.84924 6.16417 9.46836 5.79804 9.17069C5.4319 8.87302 4.99991 8.66718 4.53809 8.57034L3.42578 8.33076C3.29476 8.32724 3.16469 8.35386 3.04559 8.40857C2.92649 8.46329 2.82156 8.54463 2.73888 8.64632C2.6562 8.74802 2.59799 8.86735 2.56873 8.99511C2.53948 9.12287 2.53997 9.25564 2.57016 9.38318L3.60546 13.6613C3.72551 14.165 3.95586 14.6358 4.2799 15.0398C4.60393 15.4437 5.01357 15.7707 5.47927 15.9971C10.5318 18.2334 15.8434 19.8315 21.2911 20.7544C25.1756 21.2592 27.0067 21.1651 27.3746 19.9415C27.8281 18.4442 26.2708 16.5789 23.7125 15.5779ZM23.7639 24.6389H8.36271C8.02232 24.6389 7.69588 24.7741 7.45519 25.0148C7.2145 25.2555 7.07928 25.5819 7.07928 25.9223C7.07928 26.2627 7.2145 26.5891 7.45519 26.8298C7.69588 27.0705 8.02232 27.2057 8.36271 27.2057H23.7639C24.1043 27.2057 24.4307 27.0705 24.6714 26.8298C24.9121 26.5891 25.0473 26.2627 25.0473 25.9223C25.0473 25.5819 24.9121 25.2555 24.6714 25.0148C24.4307 24.7741 24.1043 24.6389 23.7639 24.6389Z" fill="#161763"/>
</svg>
