<svg width="30" height="30" viewBox="0 0 30 30" fill="none" xmlns="http://www.w3.org/2000/svg">
<path d="M26.7504 15.0318L23.3019 14.0739V12.4423C23.3019 12.1882 23.201 11.9446 23.0213 11.7649C22.8417 11.5853 22.598 11.4844 22.344 11.4844C22.0899 11.4844 21.8463 11.5853 21.6666 11.7649C21.487 11.9446 21.3861 12.1882 21.3861 12.4423V13.5407L17.8737 12.5636V5.41761C17.8737 4.65545 17.571 3.9245 17.032 3.38557C16.4931 2.84665 15.7622 2.54388 15 2.54388C14.2378 2.54388 13.5069 2.84665 12.968 3.38557C12.429 3.9245 12.1263 4.65545 12.1263 5.41761V12.5668L8.61394 13.5247V12.4423C8.61394 12.1882 8.51302 11.9446 8.33338 11.7649C8.15373 11.5853 7.91009 11.4844 7.65603 11.4844C7.40198 11.4844 7.15833 11.5853 6.97869 11.7649C6.79905 11.9446 6.69812 12.1882 6.69812 12.4423V14.0739L3.24965 15.0318C3.04777 15.0877 2.86977 15.2082 2.7429 15.3748C2.61602 15.5415 2.54728 15.7452 2.54718 15.9546V19.1476C2.54725 19.2952 2.5814 19.4407 2.64698 19.5729C2.71255 19.7051 2.80777 19.8204 2.92522 19.9097C3.04267 19.999 3.17916 20.06 3.32405 20.0879C3.46895 20.1157 3.61832 20.1098 3.76053 20.0704L12.1263 17.7491V22.1683L11.6569 22.2992C11.0573 22.473 10.5301 22.8363 10.1543 23.3348C9.7784 23.8333 9.57407 24.4401 9.57185 25.0643V26.4916C9.57214 26.6396 9.60671 26.7855 9.67285 26.9179C9.739 27.0503 9.83492 27.1656 9.95309 27.2547C10.0713 27.3438 10.2085 27.4043 10.354 27.4314C10.4994 27.4586 10.6492 27.4517 10.7916 27.4112L15 26.2106L19.2084 27.4112C19.2934 27.4366 19.3816 27.4495 19.4703 27.4495C19.6784 27.4486 19.8808 27.3815 20.0482 27.258C20.1666 27.1684 20.2625 27.0525 20.3285 26.9196C20.3944 26.7866 20.4285 26.6401 20.4282 26.4916V25.0611C20.4281 24.4372 20.2249 23.8302 19.8493 23.3319C19.4737 22.8336 18.9461 22.4711 18.3463 22.2992L17.8737 22.1651V17.7491L26.2395 20.0704C26.3817 20.1098 26.5311 20.1157 26.676 20.0879C26.8209 20.06 26.9574 19.999 27.0748 19.9097C27.1922 19.8204 27.2875 19.7051 27.353 19.5729C27.4186 19.4407 27.4528 19.2952 27.4528 19.1476V15.9546C27.4527 15.7452 27.384 15.5415 27.2571 15.3748C27.1302 15.2082 26.9522 15.0877 26.7504 15.0318Z" fill="white"/>
</svg>
