<svg width="30" height="30" viewBox="0 0 30 30" fill="none" xmlns="http://www.w3.org/2000/svg">
<path d="M27.3651 7.22391C26.8155 5.80376 24.5689 5.33318 22.0879 6.13149C20.5291 6.74559 19.0233 7.49617 17.5866 8.37515L8.09908 4.40883C7.44013 4.22804 6.75194 4.19372 6.07937 4.30811C5.40681 4.42249 4.765 4.68302 4.19578 5.07268L3.67857 5.42562C3.56222 5.50476 3.46748 5.61378 3.4035 5.74213C3.33952 5.87048 3.30846 6.01382 3.31334 6.1583C3.31821 6.30278 3.35885 6.44351 3.43133 6.56688C3.5038 6.69026 3.60566 6.7921 3.72706 6.86257L11.6549 11.8121C10.4023 12.5263 9.33553 13.1062 8.47082 13.6944L6.39391 12.5515C5.99676 12.3379 5.55613 12.2264 5.10897 12.2264C4.66182 12.2264 4.22118 12.3379 3.82404 12.5515L2.87043 13.0221C2.77007 13.1004 2.6886 13.2019 2.6325 13.3186C2.57639 13.4353 2.54718 13.5639 2.54718 13.6944C2.54718 13.8248 2.57639 13.9535 2.6325 14.0702C2.6886 14.1869 2.77007 14.2884 2.87043 14.3666L6.16763 17.0136C6.55473 17.3249 7.00345 17.5429 7.48141 17.6518C7.95937 17.7608 8.45463 17.7581 8.93146 17.6439C13.9746 16.2508 18.8311 14.2099 23.389 11.5684C26.5246 9.56 27.8176 8.36674 27.3651 7.22391ZM22.7344 23.19H8.18797C7.86648 23.19 7.55815 23.3228 7.33082 23.5592C7.10348 23.7956 6.97577 24.1162 6.97577 24.4505C6.97577 24.7848 7.10348 25.1054 7.33082 25.3418C7.55815 25.5782 7.86648 25.711 8.18797 25.711H22.7344C23.0559 25.711 23.3643 25.5782 23.5916 25.3418C23.8189 25.1054 23.9466 24.7848 23.9466 24.4505C23.9466 24.1162 23.8189 23.7956 23.5916 23.5592C23.3643 23.3228 23.0559 23.19 22.7344 23.19Z" fill="#161763"/>
</svg>
